<?xml version="1.0" encoding="UTF-8"?>
<svg version="1.1" viewBox="0 0 1224 1112" width="1280" height="1280" xmlns="http://www.w3.org/2000/svg">
<path transform="translate(0)" d="m0 0h1224v1112h-1224z" fill="#3C1ADB"/>
<path transform="translate(400,161)" d="m0 0h16l21 3 19 4 17 6 25 12 11 7 13 10 8 8 2 1v2h2l7 8 9 11 11 17 8 16 10 26v2h446l1 3-1 82-1 1h-58v146l-2 1h-82l-1-1-1-120v-26h-61v145l-4 2h-80l-1-1v-146h-154l-5 11-3 10-11 23-10 15-11 13-7 8-7 7-14 11-10 7-23 12-6 3-5 2-7 1-5 3-8 1h-6l-9 3-6 1h-37l-15-4h-9l-7-3-2-2h-7l-4-2-1-2-8-2-22-12-11-8-14-12-12-12-9-11-10-15-8-16-7-17-5-15-2-14-3-15v-24l5-28 7-23 8-18 10-17 9-11 9-10 6-7 8-7 14-11 16-10 14-7 25-9 17-3z" fill="#FCFDFC"/>
<path transform="translate(293,587)" d="m0 0h84l1 1v72l1 74h61v-145l1-2h83l1 1v84l1 62h153l4-8 5-14 5-12 9-16 10-14 12-14 10-10 17-13 17-10 23-11 18-5 19-4 8-1h22l16 2 24 5 15 5 15 7 15 8 14 10 11 10 8 7 18 22 9 15 8 16 8 23 6 32v26l-4 23-5 19-7 18-10 19-10 14-12 13-5 6-8 7-13 11-18 11-14 7-7 3-4 2-9-1-2 4-35 6h-24l-18-3-3-1-11-1-5-3-1-1-11-2-22-10-17-10-11-9-10-9-11-11-11-14-8-13-8-16-10-26-1-3h-445l-1-15-1-48v-22h60l-1-104v-43z" fill="#FCFDFC"/>
<path transform="translate(842,686)" d="m0 0h18l5 2h9l6 4 9 2 5 4 11 6 10 9 9 11 6 10 7 16 2 7 2 15v13l-1 9-2 6-2 4-2 8-8 15-5 8-14 14-16 9-10 5-13 4-10 1h-16l-3-1-11-1-9-4-5-1-3 2-2-5-7-2-1-4h-5l-21-21-4-6-1-5-5-4 1-5-2-7h-2l-1-7v-7l-2-2-1-7 2-16 1-3v-9l4-7 3-8 3-6 2-5 12-13 10-10 10-6 6-5h8l5-5 9 1z" fill="#3C1ADB"/>
<path transform="translate(404,246)" d="m0 0h13l17 3 13 4 4 2 2 2 5 2v2l5 1 7 7 4 3v2h2l8 10 6 11 2 1 3 11 3 6 1 12 1 3v19l-2 13-8 19-5 9-8 9-4 5-8 7-9 6-7 5-11 2-3 3-7 1h-7l-5 2h-15l-6-2h-11l-6-5h-9l-2-4-6-2-3-4-5-1-18-20-8-14-7-19-2-18v-8l2-15 8-20 9-16 15-15 18-10 11-5 7-2z" fill="#3C1ADB"/>
</svg>
