<svg version="1.1" id="Layer_1" xmlns="http://www.w3.org/2000/svg" xmlns:xlink="http://www.w3.org/1999/xlink" x="0px" y="0px"
	 width="100%" viewBox="0 0 306 278" enable-background="new 0 0 306 278" xml:space="preserve">
<path fill="#401CDB" opacity="1.000000" stroke="none" 
	d="
M209.000000,279.000000 
	C139.362946,279.000000 70.225891,279.000000 1.044420,279.000000 
	C1.044420,186.402634 1.044420,93.805252 1.044420,1.103931 
	C102.886948,1.103931 204.774048,1.103931 306.830566,1.103931 
	C306.830566,93.666412 306.830566,186.333176 306.830566,279.000000 
	C274.472076,279.000000 241.986038,279.000000 209.000000,279.000000 
M184.614456,131.676163 
	C191.408340,132.186310 198.202240,132.696442 205.740860,133.262512 
	C205.740860,123.669228 205.743027,115.061676 205.740295,106.454117 
	C205.736923,95.838409 205.738266,96.049377 216.280853,95.894630 
	C220.449661,95.833443 221.309723,97.396408 221.230621,101.130714 
	C221.036682,110.285278 221.097336,119.449455 221.308548,128.603928 
	C221.340668,129.995132 222.662277,132.502106 223.492310,132.546829 
	C229.720932,132.882446 235.975891,132.729630 242.479797,132.729630 
	C242.479797,121.508995 242.608032,111.037674 242.406937,100.572678 
	C242.340805,97.131050 243.276642,95.684334 246.866776,95.959358 
	C250.155884,96.211334 253.479523,96.012848 257.057739,96.012848 
	C257.057739,88.709770 257.057739,81.824738 257.057739,74.547455 
	C255.065445,74.547455 253.428116,74.546158 251.790771,74.547638 
	C218.152634,74.578117 184.514359,74.572762 150.876556,74.695244 
	C147.492569,74.707558 145.528152,74.079865 144.306870,70.393837 
	C137.556458,50.019955 114.289062,38.121830 95.019028,42.321877 
	C75.238617,46.633160 58.717709,64.113487 59.600166,86.799774 
	C60.500751,109.952110 79.621368,128.499268 101.604088,128.958023 
	C121.014137,129.363083 137.624847,118.064804 144.591751,99.981155 
	C145.214142,98.365700 147.199585,96.158745 148.588745,96.131958 
	C159.729324,95.917114 170.878723,96.160759 182.206573,97.045059 
	C182.470398,106.145493 182.671585,115.248474 183.042542,124.344536 
	C183.134171,126.591270 183.777649,128.815506 184.614456,131.676163 
M220.288559,152.258636 
	C200.353317,148.564911 179.675125,160.665588 172.485245,180.591568 
	C171.289597,183.905197 169.828125,185.001556 166.464645,184.869400 
	C160.475189,184.634033 154.469818,184.803513 148.471100,184.803589 
	C143.199432,184.803665 137.927765,184.803604 132.126572,184.803604 
	C132.126572,172.148834 132.126572,160.248505 132.126572,148.149231 
	C124.994720,148.149231 118.417816,148.149231 111.433899,148.149231 
	C111.345284,150.022964 111.206055,151.640121 111.202705,153.257553 
	C111.184074,162.255585 111.089554,171.255707 111.257660,180.250702 
	C111.320610,183.619385 110.370384,185.016785 106.753036,184.916595 
	C93.254318,184.542725 95.744148,186.710236 95.487801,174.057663 
	C95.420311,170.726410 95.477966,167.392639 95.478012,164.060013 
	C95.478081,158.788834 95.478027,153.517639 95.478027,148.289902 
	C88.058411,148.289902 81.334244,148.289902 74.087799,148.289902 
	C74.087799,160.580017 74.087799,172.481644 74.087799,184.964737 
	C69.000191,184.964737 64.425514,184.964737 59.935051,184.964737 
	C59.935051,192.282425 59.935051,198.992035 59.935051,206.021393 
	C63.115120,206.021393 65.764984,206.022797 68.414848,206.021179 
	C100.907753,206.001312 133.400864,206.029495 165.893280,205.892853 
	C169.520538,205.877609 171.392334,206.644272 172.718704,210.486694 
	C179.657028,230.586456 201.955093,242.158707 221.269501,238.261627 
	C241.862717,234.106537 257.347076,216.231903 257.357574,195.247498 
	C257.368011,174.425995 241.685379,155.903442 220.288559,152.258636 
z"/>
<path fill="#FAF9FE" opacity="1.000000" stroke="none" 
	d="
M182.025436,96.264130 
	C170.878723,96.160759 159.729324,95.917114 148.588745,96.131958 
	C147.199585,96.158745 145.214142,98.365700 144.591751,99.981155 
	C137.624847,118.064804 121.014137,129.363083 101.604088,128.958023 
	C79.621368,128.499268 60.500751,109.952110 59.600166,86.799774 
	C58.717709,64.113487 75.238617,46.633160 95.019028,42.321877 
	C114.289062,38.121830 137.556458,50.019955 144.306870,70.393837 
	C145.528152,74.079865 147.492569,74.707558 150.876556,74.695244 
	C184.514359,74.572762 218.152634,74.578117 251.790771,74.547638 
	C253.428116,74.546158 255.065445,74.547455 257.057739,74.547455 
	C257.057739,81.824738 257.057739,88.709770 257.057739,96.012848 
	C253.479523,96.012848 250.155884,96.211334 246.866776,95.959358 
	C243.276642,95.684334 242.340805,97.131050 242.406937,100.572678 
	C242.608032,111.037674 242.479797,121.508995 242.479797,132.729630 
	C235.975891,132.729630 229.720932,132.882446 223.492310,132.546829 
	C222.662277,132.502106 221.340668,129.995132 221.308548,128.603928 
	C221.097336,119.449455 221.036682,110.285278 221.230621,101.130714 
	C221.309723,97.396408 220.449661,95.833443 216.280853,95.894630 
	C205.738266,96.049377 205.736923,95.838409 205.740295,106.454117 
	C205.743027,115.061676 205.740860,123.669228 205.740860,133.262512 
	C198.202240,132.696442 191.408340,132.186310 184.497147,130.900543 
	C184.391968,120.227318 184.498276,110.327927 184.309662,100.434158 
	C184.282913,99.030144 182.822372,97.653458 182.025436,96.264130 
M80.866127,84.614311 
	C80.936882,85.940857 80.929703,87.276947 81.090904,88.592407 
	C82.225975,97.855202 89.935059,105.809212 99.177086,107.297691 
	C109.595161,108.975578 119.224236,104.326324 123.327911,95.623703 
	C127.462326,86.855888 126.829163,78.415657 120.709961,70.905197 
	C114.527740,63.317406 106.157784,61.222595 96.895706,63.662254 
	C87.693398,66.086174 82.026291,73.564163 80.866127,84.614311 
z"/>
<path fill="#FAF9FE" opacity="1.000000" stroke="none" 
	d="
M220.698166,152.345978 
	C241.685379,155.903442 257.368011,174.425995 257.357574,195.247498 
	C257.347076,216.231903 241.862717,234.106537 221.269501,238.261627 
	C201.955093,242.158707 179.657028,230.586456 172.718704,210.486694 
	C171.392334,206.644272 169.520538,205.877609 165.893280,205.892853 
	C133.400864,206.029495 100.907753,206.001312 68.414848,206.021179 
	C65.764984,206.022797 63.115120,206.021393 59.935051,206.021393 
	C59.935051,198.992035 59.935051,192.282425 59.935051,184.964737 
	C64.425514,184.964737 69.000191,184.964737 74.087799,184.964737 
	C74.087799,172.481644 74.087799,160.580017 74.087799,148.289902 
	C81.334244,148.289902 88.058411,148.289902 95.478027,148.289902 
	C95.478027,153.517639 95.478081,158.788834 95.478012,164.060013 
	C95.477966,167.392639 95.420311,170.726410 95.487801,174.057663 
	C95.744148,186.710236 93.254318,184.542725 106.753036,184.916595 
	C110.370384,185.016785 111.320610,183.619385 111.257660,180.250702 
	C111.089554,171.255707 111.184074,162.255585 111.202705,153.257553 
	C111.206055,151.640121 111.345284,150.022964 111.433899,148.149231 
	C118.417816,148.149231 124.994720,148.149231 132.126572,148.149231 
	C132.126572,160.248505 132.126572,172.148834 132.126572,184.803604 
	C137.927765,184.803604 143.199432,184.803665 148.471100,184.803589 
	C154.469818,184.803513 160.475189,184.634033 166.464645,184.869400 
	C169.828125,185.001556 171.289597,183.905197 172.485245,180.591568 
	C179.675125,160.665588 200.353317,148.564911 220.698166,152.345978 
M220.080734,216.943176 
	C221.878510,216.098251 223.755997,215.388748 225.460602,214.385513 
	C233.944412,209.392456 238.058105,198.358368 235.065414,188.844589 
	C231.759766,178.335968 222.210037,171.942352 211.410400,173.007370 
	C200.843277,174.049454 192.724808,181.753372 191.281372,191.878311 
	C188.815872,209.172668 204.143860,221.043427 220.080734,216.943176 
z"/>
<path fill="#3C1EC9" opacity="1.000000" stroke="none" 
	d="
M182.115997,96.654594 
	C182.822372,97.653458 184.282913,99.030144 184.309662,100.434158 
	C184.498276,110.327927 184.391968,120.227318 184.273651,130.587494 
	C183.777649,128.815506 183.134171,126.591270 183.042542,124.344536 
	C182.671585,115.248474 182.470398,106.145493 182.115997,96.654594 
z"/>
<path fill="#4321DB" opacity="1.000000" stroke="none" 
	d="
M80.885468,84.173920 
	C82.026291,73.564163 87.693398,66.086174 96.895706,63.662254 
	C106.157784,61.222595 114.527740,63.317406 120.709961,70.905197 
	C126.829163,78.415657 127.462326,86.855888 123.327911,95.623703 
	C119.224236,104.326324 109.595161,108.975578 99.177086,107.297691 
	C89.935059,105.809212 82.225975,97.855202 81.090904,88.592407 
	C80.929703,87.276947 80.936882,85.940857 80.885468,84.173920 
z"/>
<path fill="#4321DB" opacity="1.000000" stroke="none" 
	d="
M219.691177,217.059906 
	C204.143860,221.043427 188.815872,209.172668 191.281372,191.878311 
	C192.724808,181.753372 200.843277,174.049454 211.410400,173.007370 
	C222.210037,171.942352 231.759766,178.335968 235.065414,188.844589 
	C238.058105,198.358368 233.944412,209.392456 225.460602,214.385513 
	C223.755997,215.388748 221.878510,216.098251 219.691177,217.059906 
z"/>
</svg>