<?xml version="1.0" encoding="UTF-8"?>
<!DOCTYPE svg PUBLIC "-//W3C//DTD SVG 1.1//EN" "http://www.w3.org/Graphics/SVG/1.1/DTD/svg11.dtd">
<svg xmlns="http://www.w3.org/2000/svg" version="1.1" width="306px" height="278px" style="shape-rendering:geometricPrecision; text-rendering:geometricPrecision; image-rendering:optimizeQuality; fill-rule:evenodd; clip-rule:evenodd" xmlns:xlink="http://www.w3.org/1999/xlink">
<g><path style="opacity:1" fill="#3f1bda" d="M -0.5,-0.5 C 101.5,-0.5 203.5,-0.5 305.5,-0.5C 305.5,92.1667 305.5,184.833 305.5,277.5C 203.5,277.5 101.5,277.5 -0.5,277.5C -0.5,184.833 -0.5,92.1667 -0.5,-0.5 Z"/></g>
<g><path style="opacity:1" fill="#927dec" d="M 95.5,40.5 C 97.6413,39.8367 99.9746,39.5034 102.5,39.5C 106.447,39.3629 110.114,40.0296 113.5,41.5C 107.529,40.7588 101.529,40.4255 95.5,40.5 Z"/></g>
<g><path style="opacity:1" fill="#7f65e3" d="M 93.5,40.5 C 91.0209,41.7949 88.3542,42.7949 85.5,43.5C 87.5223,41.3072 90.1889,40.3072 93.5,40.5 Z"/></g>
<g><path style="opacity:1" fill="#fcfbfe" d="M 93.5,40.5 C 94.1667,40.5 94.8333,40.5 95.5,40.5C 101.529,40.4255 107.529,40.7588 113.5,41.5C 115.302,42.4582 117.302,43.1249 119.5,43.5C 119.973,44.9063 120.973,45.573 122.5,45.5C 126.362,47.0208 129.695,49.3541 132.5,52.5C 132.427,54.0269 133.094,55.0269 134.5,55.5C 138.078,58.311 140.411,61.9777 141.5,66.5C 141.796,68.403 142.463,70.0697 143.5,71.5C 180.152,73.4937 217.152,74.1604 254.5,73.5C 254.5,80.1667 254.5,86.8333 254.5,93.5C 249.968,93.1818 245.634,93.5151 241.5,94.5C 240.505,106.322 240.172,118.322 240.5,130.5C 233.833,130.5 227.167,130.5 220.5,130.5C 220.828,118.322 220.495,106.322 219.5,94.5C 214.5,94.5 209.5,94.5 204.5,94.5C 203.505,106.322 203.172,118.322 203.5,130.5C 196.833,130.5 190.167,130.5 183.5,130.5C 183.828,118.322 183.495,106.322 182.5,94.5C 169.124,93.8524 156.124,94.5191 143.5,96.5C 141.991,99.6777 140.658,103.011 139.5,106.5C 138.599,107.29 137.932,108.29 137.5,109.5C 133.833,112.5 130.5,115.833 127.5,119.5C 117.119,126.443 105.785,128.776 93.5,126.5C 90.855,124.69 87.855,123.69 84.5,123.5C 83.8333,123.167 83.1667,122.833 82.5,122.5C 80.9921,119.907 78.6587,118.574 75.5,118.5C 73.5,116.833 71.5,115.167 69.5,113.5C 68.2141,110.883 66.5475,108.55 64.5,106.5C 62.63,102.874 60.9633,99.2078 59.5,95.5C 59.0343,89.509 58.701,83.509 58.5,77.5C 59.348,73.7732 60.348,70.1065 61.5,66.5C 62.9063,66.0269 63.573,65.0269 63.5,63.5C 64.5293,60.1092 66.5293,57.4426 69.5,55.5C 71.5869,54.4154 72.9202,52.7488 73.5,50.5C 75.2279,48.7745 77.2279,47.4411 79.5,46.5C 81.0269,46.573 82.0269,45.9063 82.5,44.5C 83.209,43.596 84.209,43.2627 85.5,43.5C 88.3542,42.7949 91.0209,41.7949 93.5,40.5 Z"/></g>
<g><path style="opacity:1" fill="#9c88e9" d="M 119.5,43.5 C 121.027,43.427 122.027,44.0937 122.5,45.5C 120.973,45.573 119.973,44.9063 119.5,43.5 Z"/></g>
<g><path style="opacity:1" fill="#b2a0f2" d="M 82.5,44.5 C 82.0269,45.9063 81.0269,46.573 79.5,46.5C 79.9731,45.0937 80.9731,44.427 82.5,44.5 Z"/></g>
<g><path style="opacity:1" fill="#c5b5f7" d="M 73.5,50.5 C 72.9202,52.7488 71.5869,54.4154 69.5,55.5C 70.0798,53.2512 71.4131,51.5846 73.5,50.5 Z"/></g>
<g><path style="opacity:1" fill="#bfaef7" d="M 132.5,52.5 C 133.906,52.9731 134.573,53.9731 134.5,55.5C 133.094,55.0269 132.427,54.0269 132.5,52.5 Z"/></g>
<g><path style="opacity:1" fill="#664ddb" d="M 107.5,62.5 C 102.463,62.4126 97.4635,62.746 92.5,63.5C 95.1864,62.0092 98.1864,61.3425 101.5,61.5C 103.696,61.5046 105.696,61.838 107.5,62.5 Z"/></g>
<g><path style="opacity:1" fill="#401cda" d="M 107.5,62.5 C 108.5,62.5 109.5,62.5 110.5,62.5C 111.659,64.2503 113.326,65.2503 115.5,65.5C 117.367,66.7598 118.7,68.4265 119.5,70.5C 119.341,73.1871 120.175,75.5204 122,77.5C 122.167,79.5 122.333,81.5 122.5,83.5C 122.41,85.9637 121.743,88.1303 120.5,90C 121.337,91.0113 121.67,92.1779 121.5,93.5C 119.394,93.679 117.728,94.679 116.5,96.5C 117.609,98.2141 116.942,98.8808 114.5,98.5C 114.5,99.5 114.5,100.5 114.5,101.5C 113.5,101.833 112.833,102.5 112.5,103.5C 106.353,105.676 100.02,106.009 93.5,104.5C 91.9674,102.755 89.9674,101.755 87.5,101.5C 85.4453,99.4451 83.7787,97.1117 82.5,94.5C 82.5774,93.2502 83.244,92.4169 84.5,92C 83.552,91.5172 82.552,91.3505 81.5,91.5C 81.347,85.1308 81.6803,78.7974 82.5,72.5C 84.5775,68.1243 87.9108,65.1243 92.5,63.5C 97.4635,62.746 102.463,62.4126 107.5,62.5 Z"/></g>
<g><path style="opacity:1" fill="#c8bcf5" d="M 110.5,62.5 C 113.285,61.9162 114.952,62.9162 115.5,65.5C 113.326,65.2503 111.659,64.2503 110.5,62.5 Z"/></g>
<g><path style="opacity:1" fill="#a794f2" d="M 63.5,63.5 C 63.573,65.0269 62.9063,66.0269 61.5,66.5C 61.427,64.9731 62.0937,63.9731 63.5,63.5 Z"/></g>
<g><path style="opacity:1" fill="#ac9bec" d="M 141.5,66.5 C 143.213,67.6354 143.88,69.302 143.5,71.5C 142.463,70.0697 141.796,68.403 141.5,66.5 Z"/></g>
<g><path style="opacity:1" fill="#9480ec" d="M 143.5,71.5 C 180.931,72.1607 218.264,72.8273 255.5,73.5C 255.167,73.5 254.833,73.5 254.5,73.5C 217.152,74.1604 180.152,73.4937 143.5,71.5 Z"/></g>
<g><path style="opacity:1" fill="#d2c4f8" d="M 254.5,73.5 C 254.833,73.5 255.167,73.5 255.5,73.5C 256.833,80.5 256.833,87.5 255.5,94.5C 250.833,94.5 246.167,94.5 241.5,94.5C 245.634,93.5151 249.968,93.1818 254.5,93.5C 254.5,86.8333 254.5,80.1667 254.5,73.5 Z"/></g>
<g><path style="opacity:1" fill="#6142d8" d="M 119.5,70.5 C 123.031,74.0012 124.697,78.3345 124.5,83.5C 124.236,88.0363 123.236,92.3697 121.5,96.5C 119.5,96.5 118.5,97.5 118.5,99.5C 117.5,100.167 116.5,100.833 115.5,101.5C 115.167,101.5 114.833,101.5 114.5,101.5C 114.5,100.5 114.5,99.5 114.5,98.5C 116.942,98.8808 117.609,98.2141 116.5,96.5C 117.728,94.679 119.394,93.679 121.5,93.5C 121.67,92.1779 121.337,91.0113 120.5,90C 121.743,88.1303 122.41,85.9637 122.5,83.5C 122.333,81.5 122.167,79.5 122,77.5C 120.175,75.5204 119.341,73.1871 119.5,70.5 Z"/></g>
<g><path style="opacity:1" fill="#9b86ed" d="M 58.5,77.5 C 58.701,83.509 59.0343,89.509 59.5,95.5C 57.5951,89.5571 57.2617,83.5571 58.5,77.5 Z"/></g>
<g><path style="opacity:1" fill="#5436d8" d="M 82.5,72.5 C 81.6803,78.7974 81.347,85.1308 81.5,91.5C 82.552,91.3505 83.552,91.5172 84.5,92C 83.244,92.4169 82.5774,93.2502 82.5,94.5C 80.1327,91.32 79.1327,87.6533 79.5,83.5C 79.1327,79.3467 80.1327,75.68 82.5,72.5 Z"/></g>
<g><path style="opacity:1" fill="#634ada" d="M 182.5,94.5 C 182.5,94.8333 182.5,95.1667 182.5,95.5C 169.421,95.1863 156.421,95.5197 143.5,96.5C 156.124,94.5191 169.124,93.8524 182.5,94.5 Z"/></g>
<g><path style="opacity:1" fill="#baacf6" d="M 121.5,96.5 C 120.833,97.8333 119.833,98.8333 118.5,99.5C 118.5,97.5 119.5,96.5 121.5,96.5 Z"/></g>
<g><path style="opacity:1" fill="#937fe9" d="M 114.5,101.5 C 114.833,101.5 115.167,101.5 115.5,101.5C 115.027,102.906 114.027,103.573 112.5,103.5C 112.833,102.5 113.5,101.833 114.5,101.5 Z"/></g>
<g><path style="opacity:1" fill="#866fe3" d="M 87.5,101.5 C 89.9674,101.755 91.9674,102.755 93.5,104.5C 91.0326,104.245 89.0326,103.245 87.5,101.5 Z"/></g>
<g><path style="opacity:1" fill="#6344da" d="M 59.5,95.5 C 60.9633,99.2078 62.63,102.874 64.5,106.5C 63.5416,106.047 62.7083,105.381 62,104.5C 61.6667,104.833 61.3333,105.167 61,105.5C 60.3897,102.173 59.8897,98.8394 59.5,95.5 Z"/></g>
<g><path style="opacity:1" fill="#684ad8" d="M 143.5,96.5 C 143.964,100.723 142.631,104.057 139.5,106.5C 140.658,103.011 141.991,99.6777 143.5,96.5 Z"/></g>
<g><path style="opacity:1" fill="#6443dd" d="M 64.5,106.5 C 66.5475,108.55 68.2141,110.883 69.5,113.5C 67.2627,112.186 64.9294,111.02 62.5,110C 63.9733,109.29 64.6399,108.124 64.5,106.5 Z"/></g>
<g><path style="opacity:1" fill="#b0a0f2" d="M 219.5,94.5 C 220.495,106.322 220.828,118.322 220.5,130.5C 227.167,130.5 233.833,130.5 240.5,130.5C 240.172,118.322 240.505,106.322 241.5,94.5C 241.5,106.833 241.5,119.167 241.5,131.5C 234.167,131.5 226.833,131.5 219.5,131.5C 219.5,119.167 219.5,106.833 219.5,94.5 Z"/></g>
<g><path style="opacity:1" fill="#7c64de" d="M 137.5,109.5 C 135.167,113.833 131.833,117.167 127.5,119.5C 130.5,115.833 133.833,112.5 137.5,109.5 Z"/></g>
<g><path style="opacity:1" fill="#ae9ef3" d="M 182.5,94.5 C 183.495,106.322 183.828,118.322 183.5,130.5C 190.167,130.5 196.833,130.5 203.5,130.5C 203.172,118.322 203.505,106.322 204.5,94.5C 204.5,106.833 204.5,119.167 204.5,131.5C 197.167,131.5 189.833,131.5 182.5,131.5C 182.5,119.5 182.5,107.5 182.5,95.5C 182.5,95.1667 182.5,94.8333 182.5,94.5 Z"/></g>
<g><path style="opacity:1" fill="#5c3fd9" d="M 204.5,94.5 C 209.5,94.5 214.5,94.5 219.5,94.5C 219.5,106.833 219.5,119.167 219.5,131.5C 218.505,119.678 218.172,107.678 218.5,95.5C 214.167,95.5 209.833,95.5 205.5,95.5C 205.828,107.678 205.495,119.678 204.5,131.5C 204.5,119.167 204.5,106.833 204.5,94.5 Z"/></g>
<g><path style="opacity:1" fill="#4c2cd7" d="M 241.5,94.5 C 246.167,94.5 250.833,94.5 255.5,94.5C 251.366,95.4849 247.032,95.8182 242.5,95.5C 242.962,108.599 242.462,121.599 241,134.5C 233.927,132.874 226.761,131.874 219.5,131.5C 226.833,131.5 234.167,131.5 241.5,131.5C 241.5,119.167 241.5,106.833 241.5,94.5 Z"/></g>
<g><path style="opacity:1" fill="#d3c5fa" d="M 75.5,118.5 C 78.6587,118.574 80.9921,119.907 82.5,122.5C 79.6689,121.921 77.3356,120.588 75.5,118.5 Z"/></g>
<g><path style="opacity:1" fill="#c3b4f7" d="M 84.5,123.5 C 87.855,123.69 90.855,124.69 93.5,126.5C 89.9557,126.868 86.9557,125.868 84.5,123.5 Z"/></g>
<g><path style="opacity:1" fill="#fdfcfe" d="M 73.5,146.5 C 80.1667,146.5 86.8333,146.5 93.5,146.5C 93.3335,158.505 93.5001,170.505 94,182.5C 99.0717,183.471 104.238,183.805 109.5,183.5C 110.495,171.678 110.828,159.678 110.5,147.5C 116.833,147.5 123.167,147.5 129.5,147.5C 129.172,159.678 129.505,171.678 130.5,183.5C 143.677,183.829 156.677,183.495 169.5,182.5C 169.989,181.005 170.655,179.671 171.5,178.5C 173.256,177.448 173.923,175.781 173.5,173.5C 174.443,170.6 176.11,168.267 178.5,166.5C 180.262,165.738 181.262,164.404 181.5,162.5C 183.404,162.262 184.738,161.262 185.5,159.5C 188.876,156.806 192.543,154.473 196.5,152.5C 197.5,152.5 198.5,152.5 199.5,152.5C 205.471,151.759 211.471,151.425 217.5,151.5C 220.86,151.616 224.193,151.949 227.5,152.5C 227.5,153.167 227.833,153.5 228.5,153.5C 231.088,155.592 234.088,156.925 237.5,157.5C 240.211,160.508 242.878,163.508 245.5,166.5C 246.456,169.439 248.123,171.772 250.5,173.5C 250.427,175.027 251.094,176.027 252.5,176.5C 253.634,179.37 254.3,182.37 254.5,185.5C 255.229,190.13 255.563,194.797 255.5,199.5C 254.629,202.003 253.963,204.67 253.5,207.5C 251.942,212.284 249.609,216.618 246.5,220.5C 243.5,222.833 240.833,225.5 238.5,228.5C 236.251,229.08 234.585,230.413 233.5,232.5C 228.492,234.996 223.158,236.33 217.5,236.5C 211.5,236.167 205.5,235.833 199.5,235.5C 198.07,234.463 196.403,233.796 194.5,233.5C 193.609,232.89 192.609,232.557 191.5,232.5C 191.027,231.094 190.027,230.427 188.5,230.5C 181.025,225.019 175.358,218.019 171.5,209.5C 171.5,207.5 171.5,205.5 171.5,203.5C 134.167,203.5 96.8333,203.5 59.5,203.5C 59.8182,198.968 59.4849,194.634 58.5,190.5C 58.5,188.167 58.5,185.833 58.5,183.5C 63.5,183.5 68.5,183.5 73.5,183.5C 73.5,171.167 73.5,158.833 73.5,146.5 Z"/></g>
<g><path style="opacity:1" fill="#d9cffc" d="M 109.5,146.5 C 116.5,146.5 123.5,146.5 130.5,146.5C 130.5,158.833 130.5,171.167 130.5,183.5C 129.505,171.678 129.172,159.678 129.5,147.5C 123.167,147.5 116.833,147.5 110.5,147.5C 110.828,159.678 110.495,171.678 109.5,183.5C 109.5,171.167 109.5,158.833 109.5,146.5 Z"/></g>
<g><path style="opacity:1" fill="#8870e7" d="M 204.5,150.5 C 208.981,149.352 213.648,149.185 218.5,150C 221.851,150.057 224.851,150.891 227.5,152.5C 224.193,151.949 220.86,151.616 217.5,151.5C 213.366,150.515 209.032,150.182 204.5,150.5 Z"/></g>
<g><path style="opacity:1" fill="#684fd7" d="M 203.5,150.5 C 202.167,151.167 200.833,151.833 199.5,152.5C 198.5,152.5 197.5,152.5 196.5,152.5C 198.438,150.837 200.772,150.171 203.5,150.5 Z"/></g>
<g><path style="opacity:1" fill="#e3dafc" d="M 203.5,150.5 C 203.833,150.5 204.167,150.5 204.5,150.5C 209.032,150.182 213.366,150.515 217.5,151.5C 211.471,151.425 205.471,151.759 199.5,152.5C 200.833,151.833 202.167,151.167 203.5,150.5 Z"/></g>
<g><path style="opacity:1" fill="#6747de" d="M 228.5,153.5 C 232.38,153.198 235.38,154.531 237.5,157.5C 234.088,156.925 231.088,155.592 228.5,153.5 Z"/></g>
<g><path style="opacity:1" fill="#b4a2f0" d="M 185.5,159.5 C 184.738,161.262 183.404,162.262 181.5,162.5C 182.262,160.738 183.596,159.738 185.5,159.5 Z"/></g>
<g><path style="opacity:1" fill="#bbadf4" d="M 181.5,162.5 C 181.262,164.404 180.262,165.738 178.5,166.5C 178.738,164.596 179.738,163.262 181.5,162.5 Z"/></g>
<g><path style="opacity:1" fill="#6a4ed9" d="M 72.5,146.5 C 79.9818,145.508 87.6484,145.175 95.5,145.5C 95.5,157.833 95.5,170.167 95.5,182.5C 99.8333,182.5 104.167,182.5 108.5,182.5C 108.172,170.322 108.505,158.322 109.5,146.5C 109.5,158.833 109.5,171.167 109.5,183.5C 104.238,183.805 99.0717,183.471 94,182.5C 93.5001,170.505 93.3335,158.505 93.5,146.5C 86.8333,146.5 80.1667,146.5 73.5,146.5C 73.1667,146.5 72.8333,146.5 72.5,146.5 Z"/></g>
<g><path style="opacity:1" fill="#cdc0f9" d="M 245.5,166.5 C 247.9,168.296 249.567,170.63 250.5,173.5C 248.123,171.772 246.456,169.439 245.5,166.5 Z"/></g>
<g><path style="opacity:1" fill="#8d78e9" d="M 204.5,172.5 C 201.526,174.462 198.526,176.462 195.5,178.5C 197.435,174.897 200.435,172.897 204.5,172.5 Z"/></g>
<g><path style="opacity:1" fill="#ad9bf3" d="M 222.5,173.5 C 224.404,173.738 225.738,174.738 226.5,176.5C 224.596,176.262 223.262,175.262 222.5,173.5 Z"/></g>
<g><path style="opacity:1" fill="#d7caf7" d="M 173.5,173.5 C 173.923,175.781 173.256,177.448 171.5,178.5C 171.402,176.447 172.069,174.78 173.5,173.5 Z"/></g>
<g><path style="opacity:1" fill="#9884e7" d="M 250.5,173.5 C 251.906,173.973 252.573,174.973 252.5,176.5C 251.094,176.027 250.427,175.027 250.5,173.5 Z"/></g>
<g><path style="opacity:1" fill="#411fda" d="M 222.5,173.5 C 223.262,175.262 224.596,176.262 226.5,176.5C 226.583,180.686 228.583,183.353 232.5,184.5C 232.557,185.609 232.89,186.609 233.5,187.5C 233.682,193.366 233.015,199.032 231.5,204.5C 229.518,208.146 226.851,211.146 223.5,213.5C 223.167,213.5 222.833,213.5 222.5,213.5C 217.02,215.283 211.353,215.949 205.5,215.5C 201.359,213.928 197.692,211.595 194.5,208.5C 194.262,206.596 193.262,205.262 191.5,204.5C 188.522,196.897 188.855,189.564 192.5,182.5C 194.262,181.738 195.262,180.404 195.5,178.5C 198.526,176.462 201.526,174.462 204.5,172.5C 210.496,171.022 216.496,171.355 222.5,173.5 Z"/></g>
<g><path style="opacity:1" fill="#876fe5" d="M 195.5,178.5 C 195.262,180.404 194.262,181.738 192.5,182.5C 192.738,180.596 193.738,179.262 195.5,178.5 Z"/></g>
<g><path style="opacity:1" fill="#6143d8" d="M 226.5,176.5 C 229.471,178.443 231.471,181.109 232.5,184.5C 228.583,183.353 226.583,180.686 226.5,176.5 Z"/></g>
<g><path style="opacity:1" fill="#7b64e3" d="M 130.5,146.5 C 131.495,158.322 131.828,170.322 131.5,182.5C 144.167,182.5 156.833,182.5 169.5,182.5C 156.677,183.495 143.677,183.829 130.5,183.5C 130.5,171.167 130.5,158.833 130.5,146.5 Z"/></g>
<g><path style="opacity:1" fill="#947feb" d="M 254.5,185.5 C 255.973,188.017 256.64,190.85 256.5,194C 256.494,196.033 256.161,197.866 255.5,199.5C 255.563,194.797 255.229,190.13 254.5,185.5 Z"/></g>
<g><path style="opacity:1" fill="#9a85eb" d="M 72.5,146.5 C 72.8333,146.5 73.1667,146.5 73.5,146.5C 73.5,158.833 73.5,171.167 73.5,183.5C 68.5,183.5 63.5,183.5 58.5,183.5C 58.5,185.833 58.5,188.167 58.5,190.5C 58.5,195.167 58.5,199.833 58.5,204.5C 57.5084,197.352 57.175,190.019 57.5,182.5C 62.5,182.5 67.5,182.5 72.5,182.5C 72.5,170.5 72.5,158.5 72.5,146.5 Z"/></g>
<g><path style="opacity:1" fill="#684bd9" d="M 233.5,187.5 C 234.162,189.304 234.495,191.304 234.5,193.5C 234.545,197.332 233.878,200.999 232.5,204.5C 232.167,204.5 231.833,204.5 231.5,204.5C 233.015,199.032 233.682,193.366 233.5,187.5 Z"/></g>
<g><path style="opacity:1" fill="#d7cdfb" d="M 58.5,190.5 C 59.4849,194.634 59.8182,198.968 59.5,203.5C 96.8333,203.5 134.167,203.5 171.5,203.5C 171.5,205.5 171.5,207.5 171.5,209.5C 170.766,208.122 170.099,206.622 169.5,205C 132.502,204.5 95.5015,204.333 58.5,204.5C 58.5,199.833 58.5,195.167 58.5,190.5 Z"/></g>
<g><path style="opacity:1" fill="#ad9fe9" d="M 191.5,204.5 C 193.262,205.262 194.262,206.596 194.5,208.5C 192.738,207.738 191.738,206.404 191.5,204.5 Z"/></g>
<g><path style="opacity:1" fill="#674bd4" d="M 255.5,199.5 C 256.036,202.698 255.369,205.365 253.5,207.5C 253.963,204.67 254.629,202.003 255.5,199.5 Z"/></g>
<g><path style="opacity:1" fill="#cbbff5" d="M 231.5,204.5 C 231.833,204.5 232.167,204.5 232.5,204.5C 231.167,209.167 228.167,212.167 223.5,213.5C 226.851,211.146 229.518,208.146 231.5,204.5 Z"/></g>
<g><path style="opacity:1" fill="#af9cee" d="M 222.5,213.5 C 222.119,214.931 221.119,215.764 219.5,216C 214.648,216.815 209.981,216.648 205.5,215.5C 211.353,215.949 217.02,215.283 222.5,213.5 Z"/></g>
<g><path style="opacity:1" fill="#8b74e6" d="M 246.5,220.5 C 244.833,224.167 242.167,226.833 238.5,228.5C 240.833,225.5 243.5,222.833 246.5,220.5 Z"/></g>
<g><path style="opacity:1" fill="#9e8ae9" d="M 188.5,230.5 C 190.027,230.427 191.027,231.094 191.5,232.5C 189.973,232.573 188.973,231.906 188.5,230.5 Z"/></g>
<g><path style="opacity:1" fill="#765de3" d="M 238.5,228.5 C 237.415,230.587 235.749,231.92 233.5,232.5C 234.585,230.413 236.251,229.08 238.5,228.5 Z"/></g>
<g><path style="opacity:1" fill="#a28cee" d="M 194.5,233.5 C 196.403,233.796 198.07,234.463 199.5,235.5C 197.302,235.88 195.635,235.213 194.5,233.5 Z"/></g>
<g><path style="opacity:1" fill="#dad1fb" d="M 199.5,235.5 C 205.5,235.833 211.5,236.167 217.5,236.5C 215.527,237.163 213.361,237.496 211,237.5C 206.905,237.569 203.072,236.903 199.5,235.5 Z"/></g>
</svg>
